<?xml version="1.0" encoding="utf-8"?>
<!-- Generator: Adobe Illustrator 16.0.0, SVG Export Plug-In . SVG Version: 6.00 Build 0)  -->
<!DOCTYPE svg PUBLIC "-//W3C//DTD SVG 1.1//EN" "http://www.w3.org/Graphics/SVG/1.1/DTD/svg11.dtd">
<svg version="1.1" id="Layer_1" xmlns="http://www.w3.org/2000/svg" xmlns:xlink="http://www.w3.org/1999/xlink" x="0px" y="0px"
	 width="88.5px" height="88.75px" viewBox="0 0 88.5 88.75" enable-background="new 0 0 88.5 88.75" xml:space="preserve">
<linearGradient id="SVGID_1_" gradientUnits="userSpaceOnUse" x1="44.4927" y1="1.272" x2="44.4927" y2="87.4487">
	<stop  offset="0" style="stop-color:#DF3D41"/>
	<stop  offset="1" style="stop-color:#67100F"/>
</linearGradient>
<circle fill="url(#SVGID_1_)" cx="44.493" cy="44.36" r="43.088"/>
<g>
	<path fill="#FFFFFF" d="M84.945,43.304l-0.096-2.129l-0.084-2.129l0.072,0.164c-0.5-0.35-1.04-0.662-1.577-0.954
		c-0.536-0.299-1.085-0.572-1.638-0.828c-1.107-0.503-2.23-0.959-3.374-1.337c-1.142-0.378-2.297-0.696-3.46-0.957
		c-1.163-0.263-2.336-0.466-3.514-0.613c-0.586-0.074-1.176-0.133-1.768-0.178c-0.271-0.023-0.602-0.043-0.885-0.058
		c-0.287-0.015-0.577-0.023-0.872-0.027c-1.174-0.015-2.353,0.045-3.532,0.149c-1.18,0.112-2.361,0.268-3.546,0.449
		c-1.185,0.187-2.37,0.393-3.562,0.602c-1.189,0.214-2.385,0.427-3.588,0.621c-1.201,0.198-2.41,0.374-3.625,0.514
		c-1.215,0.146-2.438,0.241-3.664,0.293c-1.228,0.05-2.458,0.039-3.687-0.037c-1.228-0.081-2.454-0.224-3.666-0.459
		c-1.211-0.236-2.415-0.525-3.59-0.924c-1.174-0.397-2.333-0.849-3.449-1.408c-1.12-0.548-2.208-1.169-3.253-1.868
		c1.129,0.501,2.267,0.956,3.419,1.346c0.576,0.193,1.155,0.369,1.734,0.538c0.582,0.158,1.165,0.311,1.751,0.432
		c1.172,0.253,2.351,0.451,3.535,0.566c1.184,0.114,2.37,0.172,3.556,0.167c1.187-0.002,2.373-0.064,3.558-0.17
		c1.188-0.102,2.369-0.257,3.555-0.433c1.183-0.178,2.367-0.388,3.554-0.602l3.569-0.666c1.193-0.223,2.396-0.435,3.605-0.611
		c0.606-0.089,1.215-0.171,1.823-0.245c0.61-0.069,1.224-0.125,1.838-0.172c0.613-0.043,1.229-0.073,1.851-0.088
		c0.617-0.01,1.237,0.001,1.858,0.028c0.308,0.014,0.621,0.033,0.937,0.06c0.319,0.027,0.594,0.052,0.922,0.096
		c0.613,0.077,1.225,0.169,1.834,0.277c1.217,0.217,2.424,0.506,3.613,0.863c0.596,0.178,1.186,0.38,1.771,0.59
		c0.583,0.222,1.163,0.451,1.736,0.708c1.146,0.503,2.269,1.074,3.348,1.738c1.08,0.663,2.125,1.385,3.091,2.269l0.077,0.07
		l-0.004,0.095l-0.084,2.129L84.945,43.304z"/>
	<g>
		<path fill="#9E989B" d="M7.16,44.25c-0.306-0.427-0.549-0.91-0.764-1.407c-0.107-0.249-0.205-0.504-0.294-0.763
			c-0.088-0.26-0.165-0.524-0.236-0.792c-0.068-0.268-0.129-0.539-0.182-0.813c-0.05-0.274-0.095-0.55-0.129-0.828
			c-0.02-0.139-0.03-0.279-0.043-0.419c-0.016-0.141-0.026-0.28-0.031-0.421c-0.018-0.281-0.018-0.563-0.021-0.846
			c0.009-0.28,0.01-0.563,0.033-0.845c0.015-0.282,0.048-0.563,0.078-0.844c0.039-0.278,0.075-0.56,0.126-0.836
			c0.05-0.277,0.102-0.555,0.168-0.827c0.06-0.275,0.136-0.544,0.212-0.813c0.07-0.272,0.166-0.533,0.248-0.8
			c0.088-0.266,0.188-0.523,0.282-0.786l0.314-0.769l0.188-0.461l0.467,0.206c0.222,0.098,0.497,0.197,0.755,0.281
			c0.263,0.083,0.529,0.161,0.799,0.228c0.538,0.134,1.081,0.249,1.629,0.332c1.097,0.168,2.207,0.232,3.315,0.208
			c0.554-0.013,1.108-0.044,1.66-0.101c0.276-0.025,0.552-0.052,0.828-0.09c0.275-0.031,0.55-0.075,0.825-0.12
			c1.099-0.179,2.188-0.435,3.262-0.76c0.537-0.164,1.071-0.34,1.599-0.539c0.266-0.093,0.528-0.198,0.791-0.305l0.802-0.318
			c0.536-0.217,1.072-0.435,1.625-0.641c0.549-0.214,1.1-0.408,1.651-0.599c1.106-0.375,2.219-0.732,3.347-1.028
			c1.126-0.302,2.264-0.56,3.411-0.763c1.146-0.204,2.302-0.354,3.461-0.441c1.16-0.083,2.323-0.122,3.483-0.084
			c1.16,0.041,2.318,0.122,3.467,0.274c1.149,0.156,2.29,0.358,3.424,0.597c1.132,0.236,2.253,0.536,3.366,0.852
			c1.111,0.323,2.217,0.664,3.311,1.045c1.096,0.382,2.188,0.766,3.268,1.191c1.082,0.414,2.158,0.852,3.229,1.306
			c-2.229-0.565-4.449-1.158-6.675-1.692c-1.112-0.259-2.226-0.521-3.34-0.751c-1.115-0.226-2.231-0.425-3.349-0.604
			c-1.119-0.17-2.237-0.304-3.356-0.392c-1.121-0.081-2.239-0.13-3.358-0.12c-1.118,0.002-2.234,0.067-3.346,0.181
			c-1.113,0.106-2.222,0.267-3.324,0.483c-0.552,0.098-1.101,0.225-1.651,0.342c-0.547,0.136-1.097,0.262-1.641,0.417
			c-1.092,0.289-2.177,0.623-3.256,0.984c-1.084,0.369-2.138,0.743-3.225,1.168l-0.815,0.311c-0.276,0.104-0.554,0.206-0.835,0.296
			c-0.559,0.192-1.124,0.361-1.691,0.517c-1.135,0.311-2.287,0.548-3.448,0.703c-1.161,0.157-2.332,0.229-3.503,0.195
			c-1.17-0.031-2.339-0.152-3.495-0.387c-0.577-0.118-1.152-0.257-1.719-0.441c-0.284-0.09-0.565-0.192-0.846-0.302
			c-0.286-0.114-0.549-0.225-0.852-0.383l0.655-0.255l-0.335,0.701c-0.101,0.239-0.209,0.476-0.305,0.718
			c-0.091,0.244-0.196,0.483-0.275,0.733c-0.085,0.247-0.17,0.495-0.242,0.748c-0.082,0.249-0.146,0.504-0.213,0.76
			c-0.066,0.255-0.119,0.514-0.173,0.772c-0.046,0.261-0.097,0.521-0.128,0.786C6.1,37.461,6.08,37.726,6.053,37.992
			c-0.016,0.266-0.035,0.532-0.037,0.8c-0.008,0.268-0.004,0.535,0.005,0.804c0.009,0.268,0.029,0.535,0.054,0.803
			c0.028,0.268,0.064,0.533,0.107,0.799c0.091,0.529,0.215,1.054,0.372,1.567C6.717,43.278,6.908,43.781,7.16,44.25z"/>
		<path fill="#FFFFFF" d="M7.16,44.25c-0.306-0.427-0.549-0.91-0.764-1.407c-0.107-0.249-0.205-0.504-0.294-0.763
			c-0.088-0.26-0.165-0.524-0.236-0.792c-0.068-0.268-0.129-0.539-0.182-0.813c-0.05-0.274-0.095-0.55-0.129-0.828
			c-0.02-0.139-0.03-0.279-0.043-0.419c-0.016-0.141-0.026-0.28-0.031-0.421c-0.018-0.281-0.018-0.563-0.021-0.846
			c0.009-0.28,0.01-0.563,0.033-0.845c0.015-0.282,0.048-0.563,0.078-0.844c0.039-0.278,0.075-0.56,0.126-0.836
			c0.05-0.277,0.102-0.555,0.168-0.827c0.06-0.275,0.136-0.544,0.212-0.813c0.07-0.272,0.166-0.533,0.248-0.8
			c0.088-0.266,0.188-0.523,0.282-0.786l0.314-0.769l0.188-0.461l0.467,0.206c0.222,0.098,0.497,0.197,0.755,0.281
			c0.263,0.083,0.529,0.161,0.799,0.228c0.538,0.134,1.081,0.249,1.629,0.332c1.097,0.168,2.207,0.232,3.315,0.208
			c0.554-0.013,1.108-0.044,1.66-0.101c0.276-0.025,0.552-0.052,0.828-0.09c0.275-0.031,0.55-0.075,0.825-0.12
			c1.099-0.179,2.188-0.435,3.262-0.76c0.537-0.164,1.071-0.34,1.599-0.539c0.266-0.093,0.528-0.198,0.791-0.305l0.802-0.318
			c0.536-0.217,1.072-0.435,1.625-0.641c0.549-0.214,1.1-0.408,1.651-0.599c1.106-0.375,2.219-0.732,3.347-1.028
			c1.126-0.302,2.264-0.56,3.411-0.763c1.146-0.204,2.302-0.354,3.461-0.441c1.16-0.083,2.323-0.122,3.483-0.084
			c1.16,0.041,2.318,0.122,3.467,0.274c1.149,0.156,2.29,0.358,3.424,0.597c1.132,0.236,2.253,0.536,3.366,0.852
			c1.111,0.323,2.217,0.664,3.311,1.045c1.096,0.382,2.188,0.766,3.268,1.191c1.082,0.414,2.158,0.852,3.229,1.306
			c-2.229-0.565-4.449-1.158-6.675-1.692c-1.112-0.259-2.226-0.521-3.34-0.751c-1.115-0.226-2.231-0.425-3.349-0.604
			c-1.119-0.17-2.237-0.304-3.356-0.392c-1.121-0.081-2.239-0.13-3.358-0.12c-1.118,0.002-2.234,0.067-3.346,0.181
			c-1.113,0.106-2.222,0.267-3.324,0.483c-0.552,0.098-1.101,0.225-1.651,0.342c-0.547,0.136-1.097,0.262-1.641,0.417
			c-1.092,0.289-2.177,0.623-3.256,0.984c-1.084,0.369-2.138,0.743-3.225,1.168l-0.815,0.311c-0.276,0.104-0.554,0.206-0.835,0.296
			c-0.559,0.192-1.124,0.361-1.691,0.517c-1.135,0.311-2.287,0.548-3.448,0.703c-1.161,0.157-2.332,0.229-3.503,0.195
			c-1.17-0.031-2.339-0.152-3.495-0.387c-0.577-0.118-1.152-0.257-1.719-0.441c-0.284-0.09-0.565-0.192-0.846-0.302
			c-0.286-0.114-0.549-0.225-0.852-0.383l0.655-0.255l-0.335,0.701c-0.101,0.239-0.209,0.476-0.305,0.718
			c-0.091,0.244-0.196,0.483-0.275,0.733c-0.085,0.247-0.17,0.495-0.242,0.748c-0.082,0.249-0.146,0.504-0.213,0.76
			c-0.066,0.255-0.119,0.514-0.173,0.772c-0.046,0.261-0.097,0.521-0.128,0.786C6.1,37.461,6.08,37.726,6.053,37.992
			c-0.016,0.266-0.035,0.532-0.037,0.8c-0.008,0.268-0.004,0.535,0.005,0.804c0.009,0.268,0.029,0.535,0.054,0.803
			c0.028,0.268,0.064,0.533,0.107,0.799c0.091,0.529,0.215,1.054,0.372,1.567C6.717,43.278,6.908,43.781,7.16,44.25z"/>
	</g>
</g>
<g>
	<g>
		<path fill="#FFFFFF" d="M19.596,58.869h-2.734l0.702-3.212H14.24l-1.638,3.212h-2.487l9.203-17.706h3.965L19.596,58.869z
			 M15.458,53.254h2.61l1.953-8.954L15.458,53.254z"/>
		<path fill="#FFFFFF" d="M29.88,41.164l-4.971,13.659c-0.46,1.265-0.084,1.72,0.777,1.72c0.862,0,1.57-0.455,2.03-1.72
			l4.971-13.659h2.561l-4.907,13.48c-1.031,2.834-2.999,4.453-5.658,4.453c-2.66,0-3.45-1.619-2.419-4.453l4.907-13.48H29.88z"/>
		<path fill="#FFFFFF" d="M36.305,41.164h8.373l-0.92,2.529h-2.832L35.402,58.87h-2.709l5.524-15.177h-2.832L36.305,41.164z"/>
		<path fill="#FFFFFF" d="M44.09,45.413c1.031-2.833,3.074-4.452,5.733-4.452s3.524,1.619,2.493,4.452l-3.353,9.207
			c-1.03,2.832-3.073,4.45-5.733,4.45c-2.659,0-3.522-1.618-2.492-4.45L44.09,45.413z M43.384,54.797
			c-0.46,1.266-0.093,1.745,0.768,1.745c0.862,0,1.579-0.479,2.04-1.745l3.479-9.561c0.46-1.265,0.093-1.745-0.771-1.745
			c-0.86,0-1.577,0.48-2.039,1.745L43.384,54.797z"/>
		<path fill="#FFFFFF" d="M49.346,56.34c0.287,0.024,0.633,0.024,0.928,0.024c0.861,0,1.67-0.328,2.168-1.693l4.916-13.507h2.709
			l-4.842,13.304c-1.289,3.541-3.468,4.452-5.512,4.452c-0.492,0-0.861,0-1.288-0.051L49.346,56.34z"/>
		<path fill="#FFFFFF" d="M61.906,48.625h3.719l-0.921,2.529h-3.72l-1.887,5.186h4.678l-0.92,2.529h-7.388l6.443-17.706H69.3
			l-0.921,2.529H63.7L61.906,48.625z"/>
		<path fill="#FFFFFF" d="M70.186,41.164h8.373l-0.92,2.529h-2.832L69.282,58.87h-2.709l5.524-15.177h-2.832L70.186,41.164z"/>
	</g>
</g>
<text transform="matrix(0.9397 0 -0.342 0.9397 10.124 65.0771)" fill="#FFFFFF" font-family="'Ebrima'" font-size="4.8549">serviços automotivos e mecânica</text>
</svg>
