<?xml version="1.0" encoding="utf-8"?>
<!-- Generator: Adobe Illustrator 16.0.0, SVG Export Plug-In . SVG Version: 6.00 Build 0)  -->
<!DOCTYPE svg PUBLIC "-//W3C//DTD SVG 1.1//EN" "http://www.w3.org/Graphics/SVG/1.1/DTD/svg11.dtd">
<svg version="1.1" id="Layer_1" xmlns="http://www.w3.org/2000/svg" xmlns:xlink="http://www.w3.org/1999/xlink" x="0px" y="0px"
	 width="200.208px" height="101.625px" viewBox="-117.958 0 200.208 101.625" enable-background="new -117.958 0 200.208 101.625"
	 xml:space="preserve">
<g>
	
		<radialGradient id="SVGID_1_" cx="712.8721" cy="-1256.1973" r="243.3069" gradientTransform="matrix(0.2074 0 0 -0.2366 -135.9267 -267.6328)" gradientUnits="userSpaceOnUse">
		<stop  offset="0" style="stop-color:#AF2C16"/>
		<stop  offset="0.2339" style="stop-color:#AC2B17"/>
		<stop  offset="0.4699" style="stop-color:#9F281A"/>
		<stop  offset="0.707" style="stop-color:#8A231C"/>
		<stop  offset="0.9434" style="stop-color:#701B1B"/>
		<stop  offset="1" style="stop-color:#69181B"/>
	</radialGradient>
	<path fill="url(#SVGID_1_)" d="M81.803,43.409l-0.238-5.298l-0.209-5.296l0.18,0.408c-1.243-0.871-2.587-1.647-3.923-2.374
		c-1.334-0.743-2.7-1.423-4.075-2.061c-2.755-1.251-5.549-2.386-8.394-3.326c-2.841-0.94-5.715-1.73-8.608-2.381
		c-2.894-0.653-5.812-1.159-8.742-1.524c-1.457-0.184-2.925-0.331-4.397-0.443c-0.675-0.057-1.496-0.107-2.201-0.144
		c-0.714-0.038-1.436-0.057-2.17-0.068c-2.92-0.037-5.853,0.112-8.788,0.372c-2.935,0.278-5.875,0.666-8.822,1.116
		c-2.947,0.466-5.897,0.979-8.861,1.498c-2.959,0.532-5.933,1.062-8.926,1.545c-2.989,0.492-5.997,0.931-9.019,1.278
		c-3.022,0.364-6.066,0.601-9.116,0.729c-3.054,0.125-6.116,0.098-9.171-0.091c-3.056-0.201-6.106-0.558-9.121-1.142
		c-3.013-0.588-6.008-1.306-8.931-2.3c-2.92-0.987-5.804-2.111-8.581-3.502c-2.786-1.364-5.494-2.908-8.093-4.648
		c2.809,1.247,5.641,2.379,8.506,3.35c1.434,0.479,2.875,0.918,4.315,1.338c1.448,0.393,2.898,0.773,4.356,1.074
		c2.916,0.63,5.849,1.123,8.794,1.409c2.946,0.283,5.896,0.428,8.848,0.416c2.953-0.006,5.904-0.16,8.851-0.424
		c2.955-0.254,5.895-0.64,8.844-1.078c2.942-0.442,5.89-0.964,8.841-1.497l8.88-1.657c2.969-0.555,5.962-1.083,8.97-1.521
		c1.509-0.221,3.022-0.425,4.536-0.608c1.518-0.173,3.044-0.311,4.572-0.429c1.526-0.107,3.059-0.181,4.604-0.219
		c1.536-0.024,3.079,0.003,4.624,0.071c0.766,0.034,1.545,0.082,2.33,0.148c0.795,0.068,1.477,0.13,2.294,0.239
		c1.525,0.192,3.046,0.42,4.563,0.689c3.027,0.541,6.03,1.259,8.989,2.148c1.482,0.442,2.949,0.945,4.407,1.467
		c1.45,0.553,2.894,1.123,4.32,1.761c2.85,1.252,5.644,2.673,8.328,4.324c2.688,1.649,5.287,3.446,7.689,5.645l0.192,0.175
		l-0.01,0.236l-0.209,5.296L81.803,43.409z"/>
	<g>
		<path fill="#9E989B" d="M-111.719,45.763c-0.762-1.063-1.367-2.265-1.901-3.501c-0.266-0.62-0.51-1.254-0.731-1.897
			c-0.219-0.647-0.411-1.304-0.587-1.971c-0.17-0.667-0.322-1.341-0.453-2.022c-0.125-0.682-0.237-1.369-0.321-2.061
			c-0.05-0.347-0.075-0.693-0.107-1.042c-0.04-0.352-0.065-0.696-0.078-1.048c-0.045-0.699-0.045-1.4-0.052-2.104
			c0.023-0.696,0.025-1.401,0.083-2.103c0.037-0.701,0.119-1.401,0.193-2.1c0.097-0.691,0.187-1.394,0.313-2.08
			c0.125-0.688,0.254-1.381,0.419-2.058c0.148-0.684,0.338-1.354,0.527-2.023c0.174-0.677,0.413-1.325,0.617-1.99
			c0.218-0.662,0.47-1.301,0.701-1.956l0.781-1.913l0.468-1.146l1.163,0.512c0.551,0.244,1.236,0.49,1.878,0.699
			c0.651,0.209,1.315,0.403,1.985,0.567c1.339,0.334,2.689,0.62,4.055,0.826c2.727,0.417,5.488,0.579,8.249,0.517
			c1.377-0.031,2.756-0.109,4.129-0.251c0.687-0.062,1.374-0.128,2.061-0.223c0.684-0.077,1.368-0.187,2.053-0.299
			c2.733-0.445,5.443-1.082,8.115-1.891c1.336-0.408,2.666-0.845,3.979-1.341c0.662-0.231,1.313-0.493,1.968-0.759l1.995-0.791
			c1.334-0.539,2.667-1.082,4.043-1.595c1.367-0.532,2.737-1.015,4.108-1.49c2.751-0.933,5.52-1.821,8.326-2.558
			c2.801-0.751,5.633-1.394,8.486-1.897c2.851-0.508,5.727-0.881,8.611-1.097c2.886-0.207,5.78-0.304,8.665-0.21
			c2.886,0.102,5.768,0.304,8.626,0.681c2.858,0.389,5.698,0.892,8.519,1.486c2.816,0.587,5.605,1.334,8.375,2.12
			c2.765,0.804,5.515,1.652,8.236,2.6c2.726,0.951,5.442,1.906,8.129,2.964c2.692,1.029,5.37,2.119,8.032,3.249
			c-5.544-1.406-11.069-2.881-16.606-4.209c-2.768-0.645-5.537-1.296-8.31-1.868c-2.774-0.563-5.551-1.058-8.331-1.503
			c-2.784-0.422-5.566-0.757-8.35-0.975c-2.79-0.202-5.571-0.323-8.354-0.299c-2.782,0.005-5.559,0.166-8.325,0.451
			c-2.769,0.263-5.529,0.664-8.271,1.201c-1.373,0.244-2.738,0.56-4.107,0.852c-1.36,0.338-2.729,0.651-4.083,1.038
			c-2.716,0.719-5.416,1.55-8.1,2.448c-2.697,0.917-5.318,1.848-8.024,2.906l-2.027,0.774c-0.687,0.259-1.377,0.513-2.077,0.736
			c-1.391,0.478-2.796,0.898-4.207,1.287c-2.823,0.774-5.69,1.363-8.578,1.75c-2.889,0.392-5.802,0.572-8.716,0.487
			c-2.911-0.078-5.819-0.377-8.692-0.963c-1.436-0.292-2.869-0.639-4.277-1.097c-0.706-0.224-1.405-0.48-2.104-0.751
			c-0.709-0.284-1.366-0.558-2.117-0.954l1.629-0.634l-0.835,1.747c-0.251,0.594-0.52,1.182-0.759,1.783
			c-0.226,0.61-0.487,1.204-0.684,1.826c-0.214,0.615-0.423,1.231-0.602,1.861c-0.204,0.619-0.363,1.255-0.531,1.892
			c-0.164,0.634-0.295,1.278-0.43,1.92c-0.114,0.648-0.242,1.296-0.318,1.956c-0.104,0.651-0.154,1.311-0.221,1.973
			c-0.04,0.661-0.087,1.323-0.092,1.99c-0.021,0.667-0.01,1.331,0.012,2.001c0.021,0.666,0.071,1.33,0.135,1.997
			c0.069,0.667,0.159,1.326,0.266,1.988c0.226,1.315,0.534,2.621,0.925,3.898C-112.822,43.344-112.346,44.596-111.719,45.763z"/>
		
			<radialGradient id="SVGID_2_" cx="428.7422" cy="-1230.8955" r="244.2107" gradientTransform="matrix(0.2074 0 0 -0.2366 -135.9267 -267.6328)" gradientUnits="userSpaceOnUse">
			<stop  offset="0" style="stop-color:#FFFFFF"/>
			<stop  offset="0.2184" style="stop-color:#C5C2C4"/>
			<stop  offset="0.7073" style="stop-color:#524E4D"/>
			<stop  offset="1" style="stop-color:#1F1F20"/>
		</radialGradient>
		<path fill="url(#SVGID_2_)" d="M-111.719,45.763c-0.762-1.063-1.367-2.265-1.901-3.501c-0.266-0.62-0.51-1.254-0.731-1.897
			c-0.219-0.647-0.411-1.304-0.587-1.971c-0.17-0.667-0.322-1.341-0.453-2.022c-0.125-0.682-0.237-1.369-0.321-2.061
			c-0.05-0.347-0.075-0.693-0.107-1.042c-0.04-0.352-0.065-0.696-0.078-1.048c-0.045-0.699-0.045-1.4-0.052-2.104
			c0.023-0.696,0.025-1.401,0.083-2.103c0.037-0.701,0.119-1.401,0.193-2.1c0.097-0.691,0.187-1.394,0.313-2.08
			c0.125-0.688,0.254-1.381,0.419-2.058c0.148-0.684,0.338-1.354,0.527-2.023c0.174-0.677,0.413-1.325,0.617-1.99
			c0.218-0.662,0.47-1.301,0.701-1.956l0.781-1.913l0.468-1.146l1.163,0.512c0.551,0.244,1.236,0.49,1.878,0.699
			c0.651,0.209,1.315,0.403,1.985,0.567c1.339,0.334,2.689,0.62,4.055,0.826c2.727,0.417,5.488,0.579,8.249,0.517
			c1.377-0.031,2.756-0.109,4.129-0.251c0.687-0.062,1.374-0.128,2.061-0.223c0.684-0.077,1.368-0.187,2.053-0.299
			c2.733-0.445,5.443-1.082,8.115-1.891c1.336-0.408,2.666-0.845,3.979-1.341c0.662-0.231,1.313-0.493,1.968-0.759l1.995-0.791
			c1.334-0.539,2.667-1.082,4.043-1.595c1.367-0.532,2.737-1.015,4.108-1.49c2.751-0.933,5.52-1.821,8.326-2.558
			c2.801-0.751,5.633-1.394,8.486-1.897c2.851-0.508,5.727-0.881,8.611-1.097c2.886-0.207,5.78-0.304,8.665-0.21
			c2.886,0.102,5.768,0.304,8.626,0.681c2.858,0.389,5.698,0.892,8.519,1.486c2.816,0.587,5.605,1.334,8.375,2.12
			c2.765,0.804,5.515,1.652,8.236,2.6c2.726,0.951,5.442,1.906,8.129,2.964c2.692,1.029,5.37,2.119,8.032,3.249
			c-5.544-1.406-11.069-2.881-16.606-4.209c-2.768-0.645-5.537-1.296-8.31-1.868c-2.774-0.563-5.551-1.058-8.331-1.503
			c-2.784-0.422-5.566-0.757-8.35-0.975c-2.79-0.202-5.571-0.323-8.354-0.299c-2.782,0.005-5.559,0.166-8.325,0.451
			c-2.769,0.263-5.529,0.664-8.271,1.201c-1.373,0.244-2.738,0.56-4.107,0.852c-1.36,0.338-2.729,0.651-4.083,1.038
			c-2.716,0.719-5.416,1.55-8.1,2.448c-2.697,0.917-5.318,1.848-8.024,2.906l-2.027,0.774c-0.687,0.259-1.377,0.513-2.077,0.736
			c-1.391,0.478-2.796,0.898-4.207,1.287c-2.823,0.774-5.69,1.363-8.578,1.75c-2.889,0.392-5.802,0.572-8.716,0.487
			c-2.911-0.078-5.819-0.377-8.692-0.963c-1.436-0.292-2.869-0.639-4.277-1.097c-0.706-0.224-1.405-0.48-2.104-0.751
			c-0.709-0.284-1.366-0.558-2.117-0.954l1.629-0.634l-0.835,1.747c-0.251,0.594-0.52,1.182-0.759,1.783
			c-0.226,0.61-0.487,1.204-0.684,1.826c-0.214,0.615-0.423,1.231-0.602,1.861c-0.204,0.619-0.363,1.255-0.531,1.892
			c-0.164,0.634-0.295,1.278-0.43,1.92c-0.114,0.648-0.242,1.296-0.318,1.956c-0.104,0.651-0.154,1.311-0.221,1.973
			c-0.04,0.661-0.087,1.323-0.092,1.99c-0.021,0.667-0.01,1.331,0.012,2.001c0.021,0.666,0.071,1.33,0.135,1.997
			c0.069,0.667,0.159,1.326,0.266,1.988c0.226,1.315,0.534,2.621,0.925,3.898C-112.822,43.344-112.346,44.596-111.719,45.763z"/>
	</g>
</g>
<g>
	<g>
		
			<linearGradient id="SVGID_3_" gradientUnits="userSpaceOnUse" x1="-42.3203" y1="-38.3179" x2="111.9351" y2="-38.3179" gradientTransform="matrix(1 0 0.364 -1 -40.0859 21.79)">
			<stop  offset="0" style="stop-color:#B84042"/>
			<stop  offset="1" style="stop-color:#781A1D"/>
		</linearGradient>
		<path fill="url(#SVGID_3_)" d="M-80.779,82.134h-6.803l1.747-7.991h-8.273l-4.074,7.991h-6.188l22.896-44.052h9.866
			L-80.779,82.134z M-91.075,68.163h6.493l4.859-22.276L-91.075,68.163z"/>
		
			<linearGradient id="SVGID_4_" gradientUnits="userSpaceOnUse" x1="-42.3223" y1="-38.6035" x2="111.9306" y2="-38.6035" gradientTransform="matrix(1 0 0.364 -1 -40.0859 21.79)">
			<stop  offset="0" style="stop-color:#B84042"/>
			<stop  offset="1" style="stop-color:#781A1D"/>
		</linearGradient>
		<path fill="url(#SVGID_4_)" d="M-55.195,38.085l-12.367,33.982c-1.144,3.146-0.209,4.278,1.933,4.278
			c2.144,0,3.905-1.132,5.05-4.278l12.368-33.982h6.372l-12.208,33.538c-2.564,7.051-7.461,11.079-14.076,11.079
			c-6.618,0-8.583-4.028-6.018-11.079l12.208-33.538H-55.195z"/>
		
			<linearGradient id="SVGID_5_" gradientUnits="userSpaceOnUse" x1="-42.3213" y1="-38.3203" x2="111.9292" y2="-38.3203" gradientTransform="matrix(1 0 0.364 -1 -40.0859 21.79)">
			<stop  offset="0" style="stop-color:#B84042"/>
			<stop  offset="1" style="stop-color:#781A1D"/>
		</linearGradient>
		<path fill="url(#SVGID_5_)" d="M-39.209,38.085h20.831l-2.29,6.291h-7.045l-13.743,37.76h-6.74l13.743-37.76h-7.046
			L-39.209,38.085z"/>
		
			<linearGradient id="SVGID_6_" gradientUnits="userSpaceOnUse" x1="-42.3286" y1="-38.3164" x2="111.936" y2="-38.3164" gradientTransform="matrix(1 0 0.364 -1 -40.0859 21.79)">
			<stop  offset="0" style="stop-color:#B84042"/>
			<stop  offset="1" style="stop-color:#781A1D"/>
		</linearGradient>
		<path fill="url(#SVGID_6_)" d="M-19.842,48.656c2.566-7.049,7.648-11.077,14.264-11.077s8.769,4.028,6.203,11.077l-8.34,22.906
			c-2.563,7.046-7.645,11.071-14.263,11.071c-6.616,0-8.762-4.025-6.2-11.071L-19.842,48.656z M-21.598,72.002
			c-1.145,3.148-0.231,4.342,1.911,4.342c2.146,0,3.929-1.193,5.074-4.342l8.657-23.787c1.145-3.146,0.231-4.34-1.917-4.34
			c-2.141,0-3.924,1.193-5.073,4.34L-21.598,72.002z"/>
		
			<linearGradient id="SVGID_7_" gradientUnits="userSpaceOnUse" x1="-42.3252" y1="-38.3823" x2="111.9317" y2="-38.3823" gradientTransform="matrix(1 0 0.364 -1 -40.0859 21.79)">
			<stop  offset="0" style="stop-color:#B84042"/>
			<stop  offset="1" style="stop-color:#781A1D"/>
		</linearGradient>
		<path fill="url(#SVGID_7_)" d="M-6.766,75.841c0.714,0.061,1.574,0.061,2.308,0.061c2.143,0,4.155-0.816,5.394-4.213
			l12.231-33.604h6.74L7.86,71.184C4.653,79.993-0.767,82.26-5.852,82.26c-1.225,0-2.143,0-3.205-0.126L-6.766,75.841z"/>
		
			<linearGradient id="SVGID_8_" gradientUnits="userSpaceOnUse" x1="-42.3301" y1="-38.3179" x2="111.9329" y2="-38.3179" gradientTransform="matrix(1 0 0.364 -1 -40.0859 21.79)">
			<stop  offset="0" style="stop-color:#B84042"/>
			<stop  offset="1" style="stop-color:#781A1D"/>
		</linearGradient>
		<path fill="url(#SVGID_8_)" d="M24.484,56.646h9.252l-2.291,6.293H22.19l-4.694,12.901h11.638l-2.289,6.293H8.466l16.03-44.052
			h18.383l-2.292,6.292h-11.64L24.484,56.646z"/>
		
			<linearGradient id="SVGID_9_" gradientUnits="userSpaceOnUse" x1="-42.3252" y1="-38.3203" x2="111.9307" y2="-38.3203" gradientTransform="matrix(1 0 0.364 -1 -40.0859 21.79)">
			<stop  offset="0" style="stop-color:#B84042"/>
			<stop  offset="1" style="stop-color:#781A1D"/>
		</linearGradient>
		<path fill="url(#SVGID_9_)" d="M45.082,38.085h20.831l-2.288,6.291h-7.046l-13.745,37.76h-6.739l13.744-37.76h-7.046
			L45.082,38.085z"/>
	</g>
</g>
<text transform="matrix(0.9397 0 -0.342 0.9397 -106.833 97.5762)" fill="#87868A" font-family="'Ebrima'" font-size="12.0785">serviços automotivos e mecânica</text>
</svg>
